<?xml version="1.0" encoding="UTF-8" standalone="no"?>
<!-- Created with Inkscape (http://www.inkscape.org/) -->

<svg
   xmlns:dc="http://purl.org/dc/elements/1.1/"
   xmlns:cc="http://creativecommons.org/ns#"
   xmlns:rdf="http://www.w3.org/1999/02/22-rdf-syntax-ns#"
   xmlns:svg="http://www.w3.org/2000/svg"
   xmlns="http://www.w3.org/2000/svg"
   xmlns:sodipodi="http://sodipodi.sourceforge.net/DTD/sodipodi-0.dtd"
   xmlns:inkscape="http://www.inkscape.org/namespaces/inkscape"
   id="svg2"
   version="1.1"
   inkscape:version="0.48.4 r9939"
   width="81.713135"
   height="94.053368"
   sodipodi:docname="myhoand.svg">
  <metadata
     id="metadata8">
    <rdf:RDF>
      <cc:Work
         rdf:about="">
        <dc:format>image/svg+xml</dc:format>
        <dc:type
           rdf:resource="http://purl.org/dc/dcmitype/StillImage" />
        <dc:title />
      </cc:Work>
    </rdf:RDF>
  </metadata>
  <defs
     id="defs6" />
  <sodipodi:namedview
     pagecolor="#ffffff"
     bordercolor="#666666"
     borderopacity="1"
     objecttolerance="10"
     gridtolerance="10"
     guidetolerance="10"
     inkscape:pageopacity="0"
     inkscape:pageshadow="2"
     inkscape:window-width="1920"
     inkscape:window-height="1056"
     id="namedview4"
     showgrid="false"
     inkscape:zoom="2.336"
     inkscape:cx="-45.932113"
     inkscape:cy="18.444933"
     inkscape:window-x="1920"
     inkscape:window-y="24"
     inkscape:window-maximized="1"
     inkscape:current-layer="svg2"
     fit-margin-top="0"
     fit-margin-left="0"
     fit-margin-right="0"
     fit-margin-bottom="0" />
  <path
     style="fill:#000000;fill-opacity:1;stroke:#000000;stroke-width:1px;stroke-linecap:butt;stroke-linejoin:miter;stroke-opacity:1"
     d="m 53.322348,93.517982 c 7.74692,0.8704 13.69161,-14.657523 6.09072,-8.90368 l -6.3567,-16.648487 c -5.03106,-0.966142 -4.9319,-3.263948 -4.77646,-6.513253 0.12698,-2.654411 2.53358,-4.640002 5.75806,-3.664451 2.16944,0.656355 2.93612,1.166341 3.5589,8.058805 l 11.60646,11.893952 c -5.72091,6.345824 5.47358,1.545739 7.70497,0.305811 8.93828,-5.092424 2.16921,-14.848757 -4.17644,-31.572552 -11.64937,-11.678817 -18.48504,-8.732435 -23.65046,-2.455172 -5.28353,2.370616 -9.04265,-2.683119 -12.78369,9.970732 -3.48419,-6.349957 -4.40048,2.04687 -6.08757,5.873529 l 4.5405,16.043091 c 4.4558,1.405907 2.0646,4.875473 2.1189,7.567495 4.26918,3.71171 10.34214,8.97478 16.45281,10.04418 z"
     id="path2987"
     inkscape:connector-curvature="0"
     sodipodi:nodetypes="cccsscccccccccc" />
  <path
     style="fill:#000000;fill-opacity:1;stroke:#000000;stroke-width:1px;stroke-linecap:butt;stroke-linejoin:miter;stroke-opacity:1"
     d="m 24.693628,90.588012 c 0.1225,-0.5912 -0.90651,-1.09581 -0.88337,-1.51171 0.0795,-1.4298 1.01578,-1.811 3.23782,-1.05678 14.87639,0.5236 10.04844,-8.684877 -2.14041,-5.02997 -3.07073,-0.63087 -5.33561,0.01 -8.13356,-1.71233 -11.8250803,0.43193 -11.8066303,12.49544 -4.28083,11.13014 z"
     id="path3757"
     inkscape:connector-curvature="0"
     sodipodi:nodetypes="csccccc" />
  <path
     style="fill:#000000;fill-opacity:1;stroke:#000000;stroke-width:1px;stroke-linecap:butt;stroke-linejoin:miter;stroke-opacity:1"
     d="m 23.088318,52.274656 -0.10702,-5.458048 -2.24743,-0.535102 c 1.19591,7.212944 -8.87102,-0.658027 -6.95634,-4.066781 -0.91223,-1.788869 -1.61925,-1.730819 -2.24743,-0.963185 C 10.399598,43.206593 2.6016977,33.301 0.61399774,31.191608 -1.0009423,19.175992 15.105438,31.751273 13.349448,37.933903 c 0.45893,1.678808 1.12823,2.153299 2.4313,1.862445 0.7752,-4.367908 5.22725,1.903182 7.06742,3.4677 0.20526,2.731501 1.70358,1.583814 2.67263,2.023955 l 4.84492,3.669016 c 1.40162,3.639156 -0.69578,4.712363 -3.53168,5.244007 z"
     id="path3759"
     inkscape:connector-curvature="0"
     sodipodi:nodetypes="ccccccccccccc" />
  <path
     style="fill:#000000;fill-opacity:1;stroke:#000000;stroke-width:1px;stroke-linecap:butt;stroke-linejoin:miter;stroke-opacity:1"
     d="m 38.285238,39.539211 -2.24743,-2.889555 c -2.20468,-0.18368 -3.7092,-0.892472 -3.6387,-2.782534 5.77417,1.327357 -9.47933,-16.515701 -12.20035,-20.333904 -5.0055,-2.707331 -7.72345,-2.0257 -7.59846,4.387842 6.45391,6.776678 3.58279,10.292608 11.98631,7.491439 2.85613,-0.02048 1.66692,1.797826 1.6053,3.103596 -7.94147,1.462248 2.95842,13.110947 4.17381,8.668664 1.26044,0.140335 3.44146,-0.455797 2.03339,1.819349 -5.37011,3.178553 8.81208,10.641624 5.88613,0.535103 z"
     id="path3761"
     inkscape:connector-curvature="0"
     sodipodi:nodetypes="cccccccccc" />
  <path
     style="fill:#000000;fill-opacity:1;stroke:#000000;stroke-width:1px;stroke-linecap:butt;stroke-linejoin:miter;stroke-opacity:1"
     d="m 45.883688,35.900513 c 6.5531,3.437618 4.6666,-3.286682 3.6387,-7.25143 -2.0544,-2.690366 -3.41941,-2.196113 -2.78253,-5.805077 l -2.46179,-6.942561 c -1.08005,-1.291133 -2.90957,-2.17322 -3.52528,-3.50112 -0.88431,-1.907156 -0.31037,-4.1709487 -0.25846,-5.1258247 l -3.55673,-5.902646 c -3.90535,-2.06551499 -5.55334,-0.40525399 -5.82697,4.389147 2.07193,3.157695 1.98732,7.8446667 6.12967,7.4161457 3.43599,1.112994 -1.62009,4.319296 0.15135,6.962096 2.02971,2.548767 3.40527,7.694638 5.37292,6.205346 4.29617,2.750216 -4.30563,3.320061 3.11912,9.555924 z"
     id="path2986"
     inkscape:connector-curvature="0"
     sodipodi:nodetypes="ccccsccccccc" />
  <path
     style="fill:#000000;fill-opacity:1;stroke:#000000;stroke-width:1px;stroke-linecap:butt;stroke-linejoin:miter;stroke-opacity:1"
     d="m 57.521188,32.020211 c 0.24105,3.289069 4.66757,2.890613 5.4486,0.45405 -0.40069,-3.899707 1.23537,-7.012707 -2.79997,-8.021545 0.0289,-0.639857 -1.25868,-0.441932 0.75674,-2.345924 3.43285,0.553866 1.86106,-4.762 1.36215,-8.021546 l -2.95132,-1.286474 c -1.30574,-1.067195 -0.76079,-1.928757 -0.30272,-2.7999727 3.46778,-0.801043 1.47481,-2.120064 0.83242,-6.205346 -1.69376,-2.701931 -3.3494,-4.06967299 -4.8432,0.227024 0.53123,3.251458 0.14716,6.8797567 1.11873,10.1443247 0.46839,1.573847 0.16344,1.95147 0.17076,2.566211 0.0836,7.016335 0.66153,13.108116 1.20781,15.289198 z"
     id="path3756"
     inkscape:connector-curvature="0"
     sodipodi:nodetypes="cccccccccssc" />
</svg>
